<?xml version="1.0" encoding="UTF-8"?>
<svg width="797.5px" height="834.5px" viewBox="0 0 797.5 834.5" version="1.1" xmlns="http://www.w3.org/2000/svg" xmlns:xlink="http://www.w3.org/1999/xlink">
    <title>404</title>
    <g id="Page-1" stroke="none" stroke-width="1" fill="none" fill-rule="evenodd">
        <g id="404">
            <ellipse id="Oval" fill="#BCBCBC" fill-rule="nonzero" cx="308.5" cy="780" rx="308.5" ry="54.5"></ellipse>
            <circle id="Oval" fill="#BCBCBC" fill-rule="nonzero" cx="496" cy="301.5" r="301.5"></circle>
            <circle id="Oval" fill="#000000" fill-rule="nonzero" opacity="0.05" cx="496" cy="301.5" r="248.89787"></circle>
            <circle id="Oval" fill="#000000" fill-rule="nonzero" opacity="0.05" cx="496" cy="301.5" r="203.99362"></circle>
            <circle id="Oval" fill="#000000" fill-rule="nonzero" opacity="0.05" cx="496" cy="301.5" r="146.25957"></circle>
            <path d="M194.659285,318.67021 C194.659285,318.67021 173.46635,395.20445 184.00143,418.90839 C194.53651,442.61233 211.21707,465.43834 211.21707,465.43834 C211.21707,465.43834 202.560595,323.05983 194.659285,318.67021 Z" id="Path" fill="#3BA7FA" fill-rule="nonzero"></path>
            <path d="M210.015898,316.395156 C210.015898,316.395156 173.46635,385.43834 184.00143,412.43834 C194.53651,439.43834 211.21707,465.43834 211.21707,465.43834 C211.21707,465.43834 217.917208,321.395156 210.015898,316.395156 Z" id="Path" fill="#000000" fill-rule="nonzero" opacity="0.1"></path>
            <path d="M213.85084,482.99682 C213.85084,482.99682 212.09499,499.67737 211.21707,500.55529 C210.33915,501.43321 212.09499,503.18906 211.21707,505.82283 C210.33915,508.4566 209.46122,511.9683 211.21707,512.84622 C212.97292,513.72414 201.55991,590.98143 201.55991,590.98143 C201.55991,590.98143 173.46635,627.85423 184.87936,685.79719 L188.39105,744.61808 C188.39105,744.61808 215.60669,746.37393 215.60669,736.71676 C215.60669,736.71676 213.85084,725.30376 213.85084,720.03621 C213.85084,714.76866 218.24046,714.76867 215.60669,712.1349 C212.97292,709.50113 212.97292,707.74528 212.97292,707.74528 C212.97292,707.74528 217.36253,704.23359 216.48461,703.35566 C215.60669,702.47773 224.38592,640.14516 224.38592,640.14516 C224.38592,640.14516 234.04308,630.488 234.04308,625.22045 L234.04308,619.95291 C234.04308,619.95291 238.4327,608.53991 238.4327,607.66198 C238.4327,606.78405 262.13664,553.23071 262.13664,553.23071 L271.7938,591.85935 L282.32889,647.16855 C282.32889,647.16855 287.59643,697.2102 298.13151,716.52455 C298.13151,716.52455 316.56791,779.73506 316.56791,777.97921 C316.56791,776.22336 347.29524,771.83374 346.41732,763.93243 C345.5394,756.03112 327.98092,645.41273 327.98092,645.41273 L332.37054,481.241 L213.85084,482.99682 Z" id="Path" fill="#2F2F2F" fill-rule="nonzero"></path>
            <path d="M190.1469,740.22846 C190.1469,740.22846 166.44296,786.75846 182.24559,788.51426 C198.04822,790.27006 204.19368,790.27011 211.21707,783.24672 C215.05675,779.40704 222.83235,774.25538 229.09273,770.37387 C236.662005,765.75649 240.923423,757.216602 240.06166,748.39212 C239.59866,744.09681 237.99374,740.55768 234.04308,740.22846 C223.508,739.35054 211.21708,729.69338 211.21708,729.69338 L190.1469,740.22846 Z" id="Path" fill="#161617" fill-rule="nonzero"></path>
            <path d="M320.95753,774.46748 C320.95753,774.46748 297.25359,820.99748 313.05622,822.75329 C328.85885,824.5091 335.00431,824.50913 342.0277,817.48575 C345.86738,813.64606 353.64298,808.49441 359.90336,804.6129 C367.472635,799.99552 371.734053,791.455632 370.87229,782.63115 C370.40929,778.33584 368.80437,774.79671 364.85372,774.46748 C354.31863,773.58956 342.02772,763.9324 342.02772,763.9324 L320.95753,774.46748 Z" id="Path" fill="#161617" fill-rule="nonzero"></path>
            <circle id="Oval" fill="#FCB89F" fill-rule="nonzero" cx="295.90488" cy="215.43252" r="36.90462"></circle>
            <path d="M272.18048,227.55832 C272.18048,227.55832 245.82,276.06154 243.7112,276.06154 C241.6024,276.06154 291.16,291.87781 291.16,291.87781 C291.16,291.87781 304.86743,245.48342 306.97626,241.26575 L272.18048,227.55832 Z" id="Path" fill="#FCB89F" fill-rule="nonzero"></path>
            <path d="M312.61726,280.6354 C312.61726,280.6354 259.94183,251.66392 254.67426,252.54184 C249.40669,253.41976 193.2196,302.5835 194.09753,322.77574 C194.97546,342.96798 201.99884,376.32909 201.99884,376.32909 C201.99884,376.32909 204.63261,469.389 209.90015,470.26692 C215.16769,471.14484 209.02223,486.94747 210.77808,486.94747 C212.53393,486.94747 333.68739,486.94747 334.56532,484.3137 C335.44325,481.67993 312.61726,280.6354 312.61726,280.6354 Z" id="Path" fill="#3BA7FA" fill-rule="nonzero"></path>
            <path d="M342.0277,489.14228 C342.0277,489.14228 358.70825,540.06186 344.66147,538.30601 C330.61469,536.55016 324.46923,494.40982 324.46923,494.40982 L342.0277,489.14228 Z" id="Path" fill="#FCB89F" fill-rule="nonzero"></path>
            <path d="M342.0277,489.14228 C342.0277,489.14228 358.70825,540.06186 344.66147,538.30601 C330.61469,536.55016 324.46923,494.40982 324.46923,494.40982 L342.0277,489.14228 Z" id="Path" fill="#FCB89F" fill-rule="nonzero"></path>
            <path d="M297.25359,277.56267 C297.25359,277.56267 264.77041,284.58606 270.03796,328.48224 C275.30551,372.37842 284.96266,416.27461 284.96266,416.27461 L317.44584,487.38643 L320.95753,500.55529 L344.66147,494.40982 L327.103,392.57067 C327.103,392.57067 320.95753,283.70814 313.05622,280.19644 C308.073666,278.072302 302.655726,277.169313 297.25359,277.56267 Z" id="Path" fill="#3BA7FA" fill-rule="nonzero"></path>
            <polygon id="Path" fill="#000000" fill-rule="nonzero" opacity="0.1" points="281.885 393.046068 317.885 487.947 287.554432 387.947"></polygon>
            <path d="M332.646,204.56585 L332.768,201.74573 L338.3781,203.14205 C338.256452,201.309776 337.337654,199.622938 335.8643,198.52692 L341.84011,198.19279 C331.707236,183.793434 316.126437,174.164348 298.71561,171.54143 C285.78978,169.66797 271.39724,172.37899 262.53361,181.97188 C258.23435,186.62488 255.53294,192.54206 253.61129,198.57873 C250.07203,209.69694 249.35091,222.95063 256.73093,231.98811 C264.23153,241.17324 277.33293,242.9725 289.13685,244.10925 C293.29013,244.50925 297.64266,244.88141 301.49142,243.26997 C301.919787,238.855373 301.354675,234.400871 299.83752,230.23309 C299.205735,228.942897 298.903792,227.516155 298.95873,226.08063 C299.48343,222.56899 304.16757,221.68428 307.68635,222.15873 C311.20513,222.63318 315.43619,223.35904 317.74835,220.66441 C319.34096,218.80832 319.24702,216.10541 319.45802,213.66866 C320.03248,207.035 332.58587,205.95653 332.646,204.56585 Z" id="Path" fill="#161617" fill-rule="nonzero"></path>
            <circle id="Oval" fill="#FDD11F" fill-rule="nonzero" cx="559" cy="744.5" r="43"></circle>
            <circle id="Oval" fill="#FDD11F" fill-rule="nonzero" cx="54" cy="729.5" r="43"></circle>
            <circle id="Oval" fill="#FDD11F" fill-rule="nonzero" cx="54" cy="672.5" r="31"></circle>
            <circle id="Oval" fill="#FDD11F" fill-rule="nonzero" cx="54" cy="624.5" r="22"></circle>
            <text id="?" font-family="K2D-Regular, K2D" font-size="250" font-weight="normal" fill="#FFFFFF">
                <tspan x="431" y="393">?</tspan>
            </text>
        </g>
    </g>
</svg>